<svg width="96" height="96" viewBox="0 0 96 96" fill="none" xmlns="http://www.w3.org/2000/svg">
<g clip-path="url(#clip0_4_14)">
<path fill-rule="evenodd" clip-rule="evenodd" d="M80.5 48C80.5 28.3939 64.6061 12.5 45 12.5C25.3939 12.5 9.5 28.3939 9.5 48C9.5 67.6061 25.3939 83.5 45 83.5C50.7696 83.5 56.2178 82.1236 61.034 79.6813C62.0612 79.1604 63.317 79.317 64.1314 80.1314V80.1314C65.2886 81.2886 65.0673 83.225 63.6144 83.9782C58.0411 86.8676 51.7112 88.5 45 88.5C22.6325 88.5 4.5 70.3675 4.5 48C4.5 25.6325 22.6325 7.5 45 7.5C67.3675 7.5 85.5 25.6325 85.5 48C85.5 48.277 85.4972 48.5533 85.4917 48.829C85.4476 51.0227 82.85 51.9089 81.2985 50.3573V50.3573C80.7691 49.8279 80.491 49.1009 80.4983 48.3523C80.4994 48.235 80.5 48.1176 80.5 48Z" fill="#222222"/>
<path d="M80.2394 59.7326C80.9947 61.1343 83.0053 61.1343 83.7606 59.7326L92.5354 43.4487C93.2534 42.1163 92.2884 40.5 90.7747 40.5L73.2253 40.5C71.7116 40.5 70.7466 42.1163 71.4646 43.4487L80.2394 59.7326Z" fill="#222222"/>
<path d="M39.6816 59H36.4551V46.1348C36.4551 45.7064 36.4596 45.278 36.4688 44.8496C36.4779 44.4212 36.487 44.002 36.4961 43.5918C36.5143 43.1816 36.5371 42.7897 36.5645 42.416C36.373 42.6257 36.1361 42.8535 35.8535 43.0996C35.5801 43.3457 35.2884 43.6009 34.9785 43.8652L32.6816 45.6973L31.0684 43.6602L37.002 39.0117H39.6816V59ZM53.0527 46.5039C54.3379 46.5039 55.4681 46.7363 56.4434 47.2012C57.4277 47.6569 58.1934 48.3314 58.7402 49.2246C59.2871 50.1087 59.5605 51.1934 59.5605 52.4785C59.5605 53.8822 59.2643 55.0944 58.6719 56.1152C58.0794 57.127 57.209 57.9062 56.0605 58.4531C54.9121 59 53.513 59.2734 51.8633 59.2734C50.8151 59.2734 49.8353 59.1823 48.9238 59C48.0215 58.8177 47.2422 58.5443 46.5859 58.1797V55.2812C47.2695 55.6641 48.0898 55.9785 49.0469 56.2246C50.0039 56.4616 50.9199 56.5801 51.7949 56.5801C52.7246 56.5801 53.5221 56.4434 54.1875 56.1699C54.8529 55.8965 55.3633 55.4772 55.7188 54.9121C56.0833 54.347 56.2656 53.6315 56.2656 52.7656C56.2656 51.6172 55.8965 50.7331 55.1582 50.1133C54.429 49.4844 53.2852 49.1699 51.7266 49.1699C51.1797 49.1699 50.5964 49.2201 49.9766 49.3203C49.3659 49.4115 48.8555 49.5117 48.4453 49.6211L47.0371 48.7871L47.7891 39.0117H58.1797V41.8418H50.6191L50.1816 46.8184C50.5098 46.7454 50.9017 46.6771 51.3574 46.6133C51.8132 46.5404 52.3783 46.5039 53.0527 46.5039Z" fill="#222222"/>
</g>
<defs>
<clipPath id="clip0_4_14">
<rect width="96" height="96" fill="white" transform="matrix(-1 0 0 1 96 0)"/>
</clipPath>
</defs>
</svg>
