<svg width="96" height="96" viewBox="0 0 96 96" fill="none" xmlns="http://www.w3.org/2000/svg">
<path fill-rule="evenodd" clip-rule="evenodd" d="M48 96C74.5097 96 96 74.5097 96 48C96 21.4903 74.5097 0 48 0C21.4903 0 0 21.4903 0 48C0 74.5097 21.4903 96 48 96ZM47.7326 45.2393C49.1343 45.9947 49.1343 48.0053 47.7326 48.7606L31.4487 57.5354C30.1163 58.2534 28.5 57.2884 28.5 55.7747V38.2253C28.5 36.7116 30.1163 35.7466 31.4487 36.4646L47.7326 45.2393ZM70.7326 45.2393C72.1343 45.9947 72.1343 48.0053 70.7326 48.7606L54.4487 57.5354C53.1163 58.2534 51.5 57.2884 51.5 55.7747V38.2253C51.5 36.7116 53.1163 35.7466 54.4487 36.4646L70.7326 45.2393Z" fill="#222222"/>
</svg>
