<svg width="96" height="96" viewBox="0 0 96 96" fill="none" xmlns="http://www.w3.org/2000/svg">
<g clip-path="url(#clip0_4_2)">
<path fill-rule="evenodd" clip-rule="evenodd" d="M12.5 48C12.5 28.3939 28.3939 12.5 48 12.5C67.6061 12.5 83.5 28.3939 83.5 48C83.5 67.6061 67.6061 83.5 48 83.5C42.2304 83.5 36.7822 82.1236 31.966 79.6813C30.9388 79.1604 29.683 79.317 28.8686 80.1314V80.1314C27.7114 81.2886 27.9327 83.225 29.3856 83.9782C34.9589 86.8676 41.2888 88.5 48 88.5C70.3675 88.5 88.5 70.3675 88.5 48C88.5 25.6325 70.3675 7.5 48 7.5C25.6325 7.5 7.5 25.6325 7.5 48C7.5 48.277 7.50278 48.5533 7.50831 48.829C7.55236 51.0227 10.15 51.9089 11.7015 50.3573V50.3573C12.2309 49.8279 12.509 49.1009 12.5017 48.3523C12.5006 48.235 12.5 48.1176 12.5 48Z" fill="#222222"/>
<path d="M12.7606 59.7326C12.0053 61.1343 9.99466 61.1343 9.23935 59.7326L0.464604 43.4487C-0.253416 42.1163 0.711632 40.5 2.22525 40.5L19.7747 40.5C21.2884 40.5 22.2534 42.1163 21.5354 43.4487L12.7606 59.7326Z" fill="#222222"/>
<path d="M42.6816 59H39.4551V46.1348C39.4551 45.7064 39.4596 45.278 39.4688 44.8496C39.4779 44.4212 39.487 44.002 39.4961 43.5918C39.5143 43.1816 39.5371 42.7897 39.5645 42.416C39.373 42.6257 39.1361 42.8535 38.8535 43.0996C38.5801 43.3457 38.2884 43.6009 37.9785 43.8652L35.6816 45.6973L34.0684 43.6602L40.002 39.0117H42.6816V59ZM56.0527 46.5039C57.3379 46.5039 58.4681 46.7363 59.4434 47.2012C60.4277 47.6569 61.1934 48.3314 61.7402 49.2246C62.2871 50.1087 62.5605 51.1934 62.5605 52.4785C62.5605 53.8822 62.2643 55.0944 61.6719 56.1152C61.0794 57.127 60.209 57.9062 59.0605 58.4531C57.9121 59 56.513 59.2734 54.8633 59.2734C53.8151 59.2734 52.8353 59.1823 51.9238 59C51.0215 58.8177 50.2422 58.5443 49.5859 58.1797V55.2812C50.2695 55.6641 51.0898 55.9785 52.0469 56.2246C53.0039 56.4616 53.9199 56.5801 54.7949 56.5801C55.7246 56.5801 56.5221 56.4434 57.1875 56.1699C57.8529 55.8965 58.3633 55.4772 58.7188 54.9121C59.0833 54.347 59.2656 53.6315 59.2656 52.7656C59.2656 51.6172 58.8965 50.7331 58.1582 50.1133C57.429 49.4844 56.2852 49.1699 54.7266 49.1699C54.1797 49.1699 53.5964 49.2201 52.9766 49.3203C52.3659 49.4115 51.8555 49.5117 51.4453 49.6211L50.0371 48.7871L50.7891 39.0117H61.1797V41.8418H53.6191L53.1816 46.8184C53.5098 46.7454 53.9017 46.6771 54.3574 46.6133C54.8132 46.5404 55.3783 46.5039 56.0527 46.5039Z" fill="#222222"/>
</g>
<defs>
<clipPath id="clip0_4_2">
<rect width="96" height="96" fill="white"/>
</clipPath>
</defs>
</svg>
